<?plantuml 1.2026.1?><svg xmlns="http://www.w3.org/2000/svg" xmlns:xlink="http://www.w3.org/1999/xlink" contentStyleType="text/css" data-diagram-type="CLASS" height="950px" preserveAspectRatio="none" style="width:864px;height:950px;background:#FFFFFF;" version="1.1" viewBox="0 0 864 950" width="864px" zoomAndPan="magnify"><title>Home Feature &#8212; Class Diagram</title><defs/><g><g class="title" data-source-line="1"><text fill="#000000" font-family="'SF Pro Text'" font-size="14" font-weight="bold" lengthAdjust="spacing" textLength="248.4932" x="300.8778" y="22.9951">Home Feature &#8212; Class Diagram</text></g><!--class ProductRoot--><g class="entity" data-qualified-name="ProductRoot" data-source-line="14" id="ent0002"><rect fill="#F6F6FF" height="72.5625" rx="2.5" ry="2.5" style="stroke:#333366;stroke-width:0.5;" width="158.9795" x="39.53" y="416.7569"/><ellipse cx="59.0304" cy="436.8897" fill="#ADD1B2" rx="11" ry="11" style="stroke:#181818;stroke-width:1;"/><path d="M61.9992,442.5303 Q61.4211,442.8272 60.7804,442.9678 Q60.1398,443.1241 59.4367,443.1241 Q56.9367,443.1241 55.6086,441.4834 Q54.2961,439.8272 54.2961,436.7022 Q54.2961,433.5772 55.6086,431.9209 Q56.9367,430.2647 59.4367,430.2647 Q60.1398,430.2647 60.7804,430.4209 Q61.4367,430.5772 61.9992,430.8741 L61.9992,433.5928 Q61.3742,433.0147 60.7804,432.7491 Q60.1867,432.4678 59.5617,432.4678 Q58.2179,432.4678 57.5304,433.5459 Q56.8429,434.6084 56.8429,436.7022 Q56.8429,438.7959 57.5304,439.8741 Q58.2179,440.9366 59.5617,440.9366 Q60.1867,440.9366 60.7804,440.6709 Q61.3742,440.3897 61.9992,439.8116 L61.9992,442.5303 Z " fill="#000000"/><text fill="#000000" font-family="SF Pro Text" font-size="12" font-style="italic" lengthAdjust="spacing" textLength="120.9785" x="72.0305" y="432.8955">&#171;struct, Decodable&#187;</text><text fill="#000000" font-family="'SF Pro Text'" font-size="14" lengthAdjust="spacing" textLength="86.0576" x="89.491" y="448.7207">ProductRoot</text><line style="stroke:#333366;stroke-width:0.5;" x1="40.53" x2="197.5095" y1="457.0225" y2="457.0225"/><text fill="#000000" font-family="'SF Pro Text'" font-size="14" lengthAdjust="spacing" textLength="146.9795" x="45.53" y="474.0176">+products: [Product]</text><line style="stroke:#333366;stroke-width:0.5;" x1="40.53" x2="197.5095" y1="481.3194" y2="481.3194"/></g><!--class Product--><g class="entity" data-qualified-name="Product" data-source-line="18" id="ent0003"><rect fill="#F6F6FF" height="154.0469" rx="2.5" ry="2.5" style="stroke:#333366;stroke-width:0.5;" width="224.0371" x="7" y="623.3569"/><ellipse cx="22" cy="643.4897" fill="#ADD1B2" rx="11" ry="11" style="stroke:#181818;stroke-width:1;"/><path d="M24.9688,649.1303 Q24.3906,649.4272 23.75,649.5678 Q23.1094,649.7241 22.4063,649.7241 Q19.9063,649.7241 18.5781,648.0834 Q17.2656,646.4272 17.2656,643.3022 Q17.2656,640.1772 18.5781,638.5209 Q19.9063,636.8647 22.4063,636.8647 Q23.1094,636.8647 23.75,637.0209 Q24.4063,637.1772 24.9688,637.4741 L24.9688,640.1928 Q24.3438,639.6147 23.75,639.3491 Q23.1563,639.0678 22.5313,639.0678 Q21.1875,639.0678 20.5,640.1459 Q19.8125,641.2084 19.8125,643.3022 Q19.8125,645.3959 20.5,646.4741 Q21.1875,647.5366 22.5313,647.5366 Q23.1563,647.5366 23.75,647.2709 Q24.3438,646.9897 24.9688,646.4116 L24.9688,649.1303 Z " fill="#000000"/><text fill="#000000" font-family="SF Pro Text" font-size="12" font-style="italic" lengthAdjust="spacing" textLength="196.0371" x="34" y="639.4955">&#171;struct, Identifiable, Decodable&#187;</text><text fill="#000000" font-family="'SF Pro Text'" font-size="14" lengthAdjust="spacing" textLength="53.71" x="105.1636" y="655.3207">Product</text><line style="stroke:#333366;stroke-width:0.5;" x1="8" x2="230.0371" y1="663.6225" y2="663.6225"/><text fill="#000000" font-family="'SF Pro Text'" font-size="14" lengthAdjust="spacing" textLength="52.165" x="13" y="680.6176">+id: Int</text><text fill="#000000" font-family="'SF Pro Text'" font-size="14" lengthAdjust="spacing" textLength="90.0498" x="13" y="696.9145">+title: String</text><text fill="#000000" font-family="'SF Pro Text'" font-size="14" lengthAdjust="spacing" textLength="140.5195" x="13" y="713.2114">+description: String</text><text fill="#000000" font-family="'SF Pro Text'" font-size="14" lengthAdjust="spacing" textLength="111.9795" x="13" y="729.5082">+rating: Double</text><text fill="#000000" font-family="'SF Pro Text'" font-size="14" lengthAdjust="spacing" textLength="105.3486" x="13" y="745.8051">+price: Double</text><text fill="#000000" font-family="'SF Pro Text'" font-size="14" lengthAdjust="spacing" textLength="76.542" x="13" y="762.102">+stock: Int</text><line style="stroke:#333366;stroke-width:0.5;" x1="8" x2="230.0371" y1="769.4038" y2="769.4038"/></g><!--class NetworkServiceProtocol--><g class="entity" data-qualified-name="NetworkServiceProtocol" data-source-line="28" id="ent0004"><rect fill="#F6F6FF" height="64.2969" rx="2.5" ry="2.5" style="stroke:#333366;stroke-width:0.5;" width="414.1377" x="265.95" y="668.2369"/><ellipse cx="385.1858" cy="684.2369" fill="#B4A7E5" rx="11" ry="11" style="stroke:#181818;stroke-width:1;"/><path d="M381.1077,680.0025 L381.1077,677.8463 L388.4983,677.8463 L388.4983,680.0025 L386.0296,680.0025 L386.0296,688.0806 L388.4983,688.0806 L388.4983,690.2369 L381.1077,690.2369 L381.1077,688.0806 L383.5765,688.0806 L383.5765,680.0025 L381.1077,680.0025 Z " fill="#000000"/><text fill="#000000" font-family="'SF Pro Text'" font-size="14" font-style="italic" lengthAdjust="spacing" textLength="167.166" x="405.6858" y="689.0836">NetworkServiceProtocol</text><line style="stroke:#333366;stroke-width:0.5;" x1="266.95" x2="679.0877" y1="700.2369" y2="700.2369"/><line style="stroke:#333366;stroke-width:0.5;" x1="266.95" x2="679.0877" y1="708.2369" y2="708.2369"/><text fill="#000000" font-family="'SF Pro Text'" font-size="14" lengthAdjust="spacing" textLength="402.1377" x="271.95" y="725.232">+getDataFromAPI(urlStr: String) async throws : [Product]</text></g><!--class NetworkService--><g class="entity" data-qualified-name="NetworkService" data-source-line="32" id="ent0005"><rect fill="#F6F6FF" height="88.8594" rx="2.5" ry="2.5" style="stroke:#333366;stroke-width:0.5;" width="414.1377" x="265.95" y="854.4069"/><ellipse cx="413.6712" cy="874.5397" fill="#ADD1B2" rx="11" ry="11" style="stroke:#181818;stroke-width:1;"/><path d="M416.6399,880.1803 Q416.0618,880.4772 415.4212,880.6178 Q414.7806,880.7741 414.0774,880.7741 Q411.5774,880.7741 410.2493,879.1334 Q408.9368,877.4772 408.9368,874.3522 Q408.9368,871.2272 410.2493,869.5709 Q411.5774,867.9147 414.0774,867.9147 Q414.7806,867.9147 415.4212,868.0709 Q416.0774,868.2272 416.6399,868.5241 L416.6399,871.2428 Q416.0149,870.6647 415.4212,870.3991 Q414.8274,870.1178 414.2024,870.1178 Q412.8587,870.1178 412.1712,871.1959 Q411.4837,872.2584 411.4837,874.3522 Q411.4837,876.4459 412.1712,877.5241 Q412.8587,878.5866 414.2024,878.5866 Q414.8274,878.5866 415.4212,878.3209 Q416.0149,878.0397 416.6399,877.4616 L416.6399,880.1803 Z " fill="#000000"/><text fill="#000000" font-family="SF Pro Text" font-size="12" font-style="italic" lengthAdjust="spacing" textLength="49.4824" x="464.5276" y="870.5455">&#171;struct&#187;</text><text fill="#000000" font-family="'SF Pro Text'" font-size="14" lengthAdjust="spacing" textLength="110.1953" x="434.1712" y="886.3707">NetworkService</text><line style="stroke:#333366;stroke-width:0.5;" x1="266.95" x2="679.0877" y1="894.6725" y2="894.6725"/><text fill="#000000" font-family="'SF Pro Text'" font-size="14" lengthAdjust="spacing" textLength="174.0225" x="271.95" y="911.6676">+urlSession: URLSession</text><line style="stroke:#333366;stroke-width:0.5;" x1="266.95" x2="679.0877" y1="918.9694" y2="918.9694"/><text fill="#000000" font-family="'SF Pro Text'" font-size="14" lengthAdjust="spacing" textLength="402.1377" x="271.95" y="935.9645">+getDataFromAPI(urlStr: String) async throws : [Product]</text></g><!--class HomeViewModel--><g class="entity" data-qualified-name="HomeViewModel" data-source-line="38" id="ent0006"><rect fill="#F6F6FF" height="186.6406" rx="2.5" ry="2.5" style="stroke:#333366;stroke-width:0.5;" width="335.9688" x="269.03" y="359.7169"/><ellipse cx="347.1814" cy="379.8497" fill="#ADD1B2" rx="11" ry="11" style="stroke:#181818;stroke-width:1;"/><path d="M350.1501,385.4903 Q349.572,385.7872 348.9314,385.9278 Q348.2907,386.0841 347.5876,386.0841 Q345.0876,386.0841 343.7595,384.4434 Q342.447,382.7872 342.447,379.6622 Q342.447,376.5372 343.7595,374.8809 Q345.0876,373.2247 347.5876,373.2247 Q348.2907,373.2247 348.9314,373.3809 Q349.5876,373.5372 350.1501,373.8341 L350.1501,376.5528 Q349.5251,375.9747 348.9314,375.7091 Q348.3376,375.4278 347.7126,375.4278 Q346.3689,375.4278 345.6814,376.5059 Q344.9939,377.5684 344.9939,379.6622 Q344.9939,381.7559 345.6814,382.8341 Q346.3689,383.8966 347.7126,383.8966 Q348.3376,383.8966 348.9314,383.6309 Q349.5251,383.3497 350.1501,382.7716 L350.1501,385.4903 Z " fill="#000000"/><text fill="#000000" font-family="SF Pro Text" font-size="12" font-style="italic" lengthAdjust="spacing" textLength="175.166" x="365.6814" y="375.8555">&#171;@MainActor, @Observable&#187;</text><text fill="#000000" font-family="'SF Pro Text'" font-size="14" lengthAdjust="spacing" textLength="116.9082" x="394.8103" y="391.6807">HomeViewModel</text><line style="stroke:#333366;stroke-width:0.5;" x1="270.03" x2="603.9988" y1="399.9825" y2="399.9825"/><text fill="#000000" font-family="'SF Pro Text'" font-size="14" lengthAdjust="spacing" textLength="143.5068" x="275.03" y="416.9776">+urlEndpoint: String</text><text fill="#000000" font-family="'SF Pro Text'" font-size="14" lengthAdjust="spacing" textLength="146.9795" x="275.03" y="433.2745">+products: [Product]</text><text fill="#000000" font-family="'SF Pro Text'" font-size="14" lengthAdjust="spacing" textLength="118.1865" x="275.03" y="449.5714">+isLoading: Bool</text><text fill="#000000" font-family="'SF Pro Text'" font-size="14" lengthAdjust="spacing" textLength="135.1602" x="275.03" y="465.8682">+isShowError: Bool</text><text fill="#000000" font-family="'SF Pro Text'" font-size="14" lengthAdjust="spacing" textLength="125.3848" x="275.03" y="482.1651">+errorMsg: String</text><text fill="#000000" font-family="'SF Pro Text'" font-size="14" lengthAdjust="spacing" textLength="284.2246" x="275.03" y="498.462">-netwokService: NetworkServiceProtocol</text><line style="stroke:#333366;stroke-width:0.5;" x1="270.03" x2="603.9988" y1="505.7638" y2="505.7638"/><text fill="#000000" font-family="'SF Pro Text'" font-size="14" lengthAdjust="spacing" textLength="323.9688" x="275.03" y="522.7589">+init(netwokService: NetworkServiceProtocol)</text><text fill="#000000" font-family="'SF Pro Text'" font-size="14" lengthAdjust="spacing" textLength="151.8262" x="275.03" y="539.0557">+getProducts() async</text></g><!--class HomeView--><g class="entity" data-qualified-name="HomeView" data-source-line="50" id="ent0007"><rect fill="#F6F6FF" height="88.8594" rx="2.5" ry="2.5" style="stroke:#333366;stroke-width:0.5;" width="171.7285" x="104.15" y="193.8569"/><ellipse cx="145.1946" cy="213.9897" fill="#ADD1B2" rx="11" ry="11" style="stroke:#181818;stroke-width:1;"/><path d="M148.1634,219.6303 Q147.5853,219.9272 146.9446,220.0678 Q146.304,220.2241 145.6009,220.2241 Q143.1009,220.2241 141.7728,218.5834 Q140.4603,216.9272 140.4603,213.8022 Q140.4603,210.6772 141.7728,209.0209 Q143.1009,207.3647 145.6009,207.3647 Q146.304,207.3647 146.9446,207.5209 Q147.6009,207.6772 148.1634,207.9741 L148.1634,210.6928 Q147.5384,210.1147 146.9446,209.8491 Q146.3509,209.5678 145.7259,209.5678 Q144.3821,209.5678 143.6946,210.6459 Q143.0071,211.7084 143.0071,213.8022 Q143.0071,215.8959 143.6946,216.9741 Q144.3821,218.0366 145.7259,218.0366 Q146.3509,218.0366 146.9446,217.7709 Q147.5384,217.4897 148.1634,216.9116 L148.1634,219.6303 Z " fill="#000000"/><text fill="#000000" font-family="SF Pro Text" font-size="12" font-style="italic" lengthAdjust="spacing" textLength="85.8516" x="162.9823" y="209.9955">&#171;struct, View&#187;</text><text fill="#000000" font-family="'SF Pro Text'" font-size="14" lengthAdjust="spacing" textLength="74.874" x="168.4711" y="225.8207">HomeView</text><line style="stroke:#333366;stroke-width:0.5;" x1="105.15" x2="274.8785" y1="234.1225" y2="234.1225"/><text fill="#000000" font-family="'SF Pro Text'" font-size="14" lengthAdjust="spacing" textLength="159.7285" x="110.15" y="251.1176">+vm: HomeViewModel</text><text fill="#000000" font-family="'SF Pro Text'" font-size="14" lengthAdjust="spacing" textLength="131.6123" x="110.15" y="267.4145">+body: some View</text><line style="stroke:#333366;stroke-width:0.5;" x1="105.15" x2="274.8785" y1="274.7163" y2="274.7163"/></g><!--class CheckoutView--><g class="entity" data-qualified-name="CheckoutView" data-source-line="55" id="ent0008"><rect fill="#F6F6FF" height="72.5625" rx="2.5" ry="2.5" style="stroke:#333366;stroke-width:0.5;" width="143.6123" x="311.21" y="202.0069"/><ellipse cx="331.6496" cy="222.1397" fill="#ADD1B2" rx="11" ry="11" style="stroke:#181818;stroke-width:1;"/><path d="M334.6183,227.7803 Q334.0402,228.0772 333.3996,228.2178 Q332.7589,228.3741 332.0558,228.3741 Q329.5558,228.3741 328.2277,226.7334 Q326.9152,225.0772 326.9152,221.9522 Q326.9152,218.8272 328.2277,217.1709 Q329.5558,215.5147 332.0558,215.5147 Q332.7589,215.5147 333.3996,215.6709 Q334.0558,215.8272 334.6183,216.1241 L334.6183,218.8428 Q333.9933,218.2647 333.3996,217.9991 Q332.8058,217.7178 332.1808,217.7178 Q330.8371,217.7178 330.1496,218.7959 Q329.4621,219.8584 329.4621,221.9522 Q329.4621,224.0459 330.1496,225.1241 Q330.8371,226.1866 332.1808,226.1866 Q332.8058,226.1866 333.3996,225.9209 Q333.9933,225.6397 334.6183,225.0616 L334.6183,227.7803 Z " fill="#000000"/><text fill="#000000" font-family="SF Pro Text" font-size="12" font-style="italic" lengthAdjust="spacing" textLength="85.8516" x="353.6948" y="218.1455">&#171;struct, View&#187;</text><text fill="#000000" font-family="'SF Pro Text'" font-size="14" lengthAdjust="spacing" textLength="99.5244" x="346.8583" y="233.9707">CheckoutView</text><line style="stroke:#333366;stroke-width:0.5;" x1="312.21" x2="453.8223" y1="242.2725" y2="242.2725"/><text fill="#000000" font-family="'SF Pro Text'" font-size="14" lengthAdjust="spacing" textLength="131.6123" x="317.21" y="259.2676">+body: some View</text><line style="stroke:#333366;stroke-width:0.5;" x1="312.21" x2="453.8223" y1="266.5694" y2="266.5694"/></g><!--class RootView--><g class="entity" data-qualified-name="RootView" data-source-line="59" id="ent0009"><rect fill="#F6F6FF" height="72.5625" rx="2.5" ry="2.5" style="stroke:#333366;stroke-width:0.5;" width="143.6123" x="214.21" y="44.2969"/><ellipse cx="242.6023" cy="64.4297" fill="#ADD1B2" rx="11" ry="11" style="stroke:#181818;stroke-width:1;"/><path d="M245.5711,70.0703 Q244.993,70.3672 244.3523,70.5078 Q243.7117,70.6641 243.0086,70.6641 Q240.5086,70.6641 239.1805,69.0234 Q237.868,67.3672 237.868,64.2422 Q237.868,61.1172 239.1805,59.4609 Q240.5086,57.8047 243.0086,57.8047 Q243.7117,57.8047 244.3523,57.9609 Q245.0086,58.1172 245.5711,58.4141 L245.5711,61.1328 Q244.9461,60.5547 244.3523,60.2891 Q243.7586,60.0078 243.1336,60.0078 Q241.7898,60.0078 241.1023,61.0859 Q240.4148,62.1484 240.4148,64.2422 Q240.4148,66.3359 241.1023,67.4141 Q241.7898,68.4766 243.1336,68.4766 Q243.7586,68.4766 244.3523,68.2109 Q244.9461,67.9297 245.5711,67.3516 L245.5711,70.0703 Z " fill="#000000"/><text fill="#000000" font-family="SF Pro Text" font-size="12" font-style="italic" lengthAdjust="spacing" textLength="85.8516" x="257.5784" y="60.4355">&#171;struct, View&#187;</text><text fill="#000000" font-family="'SF Pro Text'" font-size="14" lengthAdjust="spacing" textLength="65.8779" x="267.5652" y="76.2607">RootView</text><line style="stroke:#333366;stroke-width:0.5;" x1="215.21" x2="356.8223" y1="84.5625" y2="84.5625"/><text fill="#000000" font-family="'SF Pro Text'" font-size="14" lengthAdjust="spacing" textLength="131.6123" x="220.21" y="101.5576">+body: some View</text><line style="stroke:#333366;stroke-width:0.5;" x1="215.21" x2="356.8223" y1="108.8594" y2="108.8594"/></g><g class="entity" data-qualified-name="GMN17" data-source-line="72" id="ent0018"><path d="M489.96,210.5869 L489.96,265.9853 A0,0 0 0 0 489.96,265.9853 L526.47,265.9853 L483.63,359.3569 L534.47,265.9853 L598.0816,265.9853 A0,0 0 0 0 598.0816,265.9853 L598.0816,220.5869 L588.0816,210.5869 L489.96,210.5869 A0,0 0 0 0 489.96,210.5869" fill="#FFFDE7" style="stroke:#F9A825;stroke-width:0.5;"/><path d="M588.0816,210.5869 L588.0816,220.5869 L598.0816,220.5869 L588.0816,210.5869" fill="#FFFDE7" style="stroke:#F9A825;stroke-width:0.5;"/><text fill="#000000" font-family="'SF Pro Text'" font-size="13" lengthAdjust="spacing" textLength="78.4697" x="495.96" y="227.6538">@MainActor</text><text fill="#000000" font-family="'SF Pro Text'" font-size="13" lengthAdjust="spacing" textLength="87.1216" x="495.96" y="242.7866">@Observable</text><text fill="#000000" font-family="'SF Pro Text'" font-size="13" lengthAdjust="spacing" textLength="64.4097" x="495.96" y="257.9194">final class</text></g><g class="entity" data-qualified-name="GMN20" data-source-line="73" id="ent0021"><path d="M714.78,871.1369 L714.78,894.8369 L680.56,898.8369 L714.78,902.8369 L714.78,926.5353 A0,0 0 0 0 714.78,926.5353 L857.2488,926.5353 A0,0 0 0 0 857.2488,926.5353 L857.2488,881.1369 L847.2488,871.1369 L714.78,871.1369 A0,0 0 0 0 714.78,871.1369" fill="#FFFDE7" style="stroke:#F9A825;stroke-width:0.5;"/><path d="M847.2488,871.1369 L847.2488,881.1369 L857.2488,881.1369 L847.2488,871.1369" fill="#FFFDE7" style="stroke:#F9A825;stroke-width:0.5;"/><text fill="#000000" font-family="'SF Pro Text'" font-size="13" lengthAdjust="spacing" textLength="90.2446" x="720.78" y="888.2038">Handles HTTP</text><text fill="#000000" font-family="'SF Pro Text'" font-size="13" lengthAdjust="spacing" textLength="94.2627" x="720.78" y="903.3366">1xx-5xx codes</text><text fill="#000000" font-family="'SF Pro Text'" font-size="13" lengthAdjust="spacing" textLength="121.4688" x="720.78" y="918.4694">with defer cleanup</text></g><!--reverse link NetworkServiceProtocol to NetworkService--><g class="link" data-entity-1="ent0004" data-entity-2="ent0005" data-link-type="extension" data-source-line="64" id="lnk10"><path codeLine="64" d="M473.02,750.9469 C473.02,783.8069 473.02,817.5269 473.02,854.2669" fill="none" id="NetworkServiceProtocol-backto-NetworkService" style="stroke:#333366;stroke-width:1;stroke-dasharray:7,7;"/><polygon fill="none" points="473.02,732.9469,467.02,750.9469,479.02,750.9469,473.02,732.9469" style="stroke:#333366;stroke-width:1;"/><text fill="#000000" font-family="'SF Pro Text'" font-size="13" lengthAdjust="spacing" textLength="77.835" x="474.02" y="820.4738">conforms to</text></g><!--reverse link ProductRoot to Product--><g class="link" data-entity-1="ent0002" data-entity-2="ent0003" data-link-type="composition" data-source-line="65" id="lnk11"><path codeLine="65" d="M119.02,501.7169 C119.02,536.4669 119.02,578.4169 119.02,622.8869" fill="none" id="ProductRoot-backto-Product" style="stroke:#333366;stroke-width:1;"/><polygon fill="#333366" points="119.02,489.7169,115.02,495.7169,119.02,501.7169,123.02,495.7169,119.02,489.7169" style="stroke:#333366;stroke-width:1;"/><text fill="#000000" font-family="'SF Pro Text'" font-size="13" lengthAdjust="spacing" textLength="57.0591" x="120.02" y="589.4238">products</text><text fill="#000000" font-family="'SF Pro Text'" font-size="13" lengthAdjust="spacing" textLength="8.271" x="110.3558" y="509.3884">1</text><text fill="#000000" font-family="'SF Pro Text'" font-size="13" lengthAdjust="spacing" textLength="23.0356" x="94.9975" y="612.39">0..*</text></g><!--link HomeViewModel to NetworkServiceProtocol--><g class="link" data-entity-1="ent0006" data-entity-2="ent0004" data-link-type="dependency" data-source-line="66" id="lnk12"><path codeLine="66" d="M450.63,546.7969 C456.9,589.5369 463.0592,631.5104 467.5392,662.0504" fill="none" id="HomeViewModel-to-NetworkServiceProtocol" style="stroke:#333366;stroke-width:1;stroke-dasharray:7,7;"/><polygon fill="#333366" points="468.41,667.9869,471.0614,658.5016,467.6843,663.0398,463.1461,659.6627,468.41,667.9869" style="stroke:#333366;stroke-width:1;"/><text fill="#000000" font-family="'SF Pro Text'" font-size="13" lengthAdjust="spacing" textLength="76.0894" x="459.02" y="589.4238">depends on</text></g><!--reverse link HomeViewModel to Product--><g class="link" data-entity-1="ent0006" data-entity-2="ent0003" data-link-type="aggregation" data-source-line="67" id="lnk13"><path codeLine="67" d="M307.2983,554.1261 C274.7583,579.2261 249.41,598.7869 218.17,622.8869" fill="none" id="HomeViewModel-backto-Product" style="stroke:#333366;stroke-width:1;"/><polygon fill="none" points="316.8,546.7969,309.6061,547.2942,307.2983,554.1261,314.4922,553.6287,316.8,546.7969" style="stroke:#333366;stroke-width:1;"/><text fill="#000000" font-family="'SF Pro Text'" font-size="13" lengthAdjust="spacing" textLength="34.8296" x="279.02" y="589.4238">holds</text><text fill="#000000" font-family="'SF Pro Text'" font-size="13" lengthAdjust="spacing" textLength="8.271" x="299.688" y="566.3049">1</text><text fill="#000000" font-family="'SF Pro Text'" font-size="13" lengthAdjust="spacing" textLength="23.0356" x="202.978" y="612.39">0..*</text></g><!--reverse link HomeView to HomeViewModel--><g class="link" data-entity-1="ent0007" data-entity-2="ent0006" data-link-type="aggregation" data-source-line="68" id="lnk14"><path codeLine="68" d="M249.9915,290.9491 C275.6215,313.0291 298.63,332.8469 329.4,359.3469" fill="none" id="HomeView-backto-HomeViewModel" style="stroke:#333366;stroke-width:1;"/><polygon fill="none" points="240.9,283.1169,242.835,290.0635,249.9915,290.9491,248.0565,284.0025,240.9,283.1169" style="stroke:#333366;stroke-width:1;"/><text fill="#000000" font-family="'SF Pro Text'" font-size="13" lengthAdjust="spacing" textLength="47.4106" x="293.02" y="325.7838">@State</text></g><!--reverse link RootView to HomeView--><g class="link" data-entity-1="ent0009" data-entity-2="ent0007" data-link-type="aggregation" data-source-line="69" id="lnk15"><path codeLine="69" d="M257.691,127.5207 C243.741,150.1407 231.91,169.3469 217.08,193.3969" fill="none" id="RootView-backto-HomeView" style="stroke:#333366;stroke-width:1;"/><polygon fill="none" points="263.99,117.3069,257.4359,120.3141,257.691,127.5207,264.2451,124.5135,263.99,117.3069" style="stroke:#333366;stroke-width:1;"/><text fill="#000000" font-family="'SF Pro Text'" font-size="13" lengthAdjust="spacing" textLength="53.752" x="245.02" y="159.9238">TabItem</text></g><!--reverse link RootView to CheckoutView--><g class="link" data-entity-1="ent0009" data-entity-2="ent0008" data-link-type="aggregation" data-source-line="70" id="lnk16"><path codeLine="70" d="M314.617,127.491 C330.397,152.811 345.12,176.4469 360.87,201.7369" fill="none" id="RootView-backto-CheckoutView" style="stroke:#333366;stroke-width:1;"/><polygon fill="none" points="308.27,117.3069,308.0488,124.5146,314.617,127.491,314.8382,120.2833,308.27,117.3069" style="stroke:#333366;stroke-width:1;"/><text fill="#000000" font-family="'SF Pro Text'" font-size="13" lengthAdjust="spacing" textLength="53.752" x="336.02" y="159.9238">TabItem</text></g><?plantuml-src fLN9Rjim4BthAmRkeKuQ6rcGJN22BBOGequQn6ulTG-qHDk4POv0ZcAdRO1-HB-mNr9Iya9vALfKkb33cJSpRnQHe9Z37Ouv19nHgZZy-l4JRcEcDTG56oWszlH8o8IP4uHMVasaH2ybtWnHjiLN3lkEIiJxB8qfG4aFpC2MsW4yAeGEdr9f5Ug6XQE1mbH6jnYZWZV1YNc3DJLK4LSpbIFpd9muAa8ILtqMyZMqnbbmt3ZVgEeY7ZPEwqU7ZXfJ2YVRt4aaRhERtUzdpyhzUbv1K6-ShcgvGGJdrsU7nvxt5YukBk0U8nvhU_Go1Yo5KHhI4o91hQP9cOyzgFCG8zQB-UKbVFC0tYMvclRXyypYY_Vg5J4S-sR49Oc-i10Rq4JaGrEIFP9j51_QflHoO0KHrw4I2GcKhbWnCYSVwfWQe3ma4N9Ne0d3KGxyEi_tWTC4rGXQx8MhBEr5gUPtRQwU3P99mjXZd4Suu5Hdn0A5u-l7PZbLiGbb7iyECFqYGw2XAQU6ZPmKmHVKp1cmW5phBCcFJwtP-Jyzvob_4doIbTcfiXt4fRnMkxfdGbw7X6eFhZxqj8dIhOznsf1HWeOhjmQRci1MKxUGHLbrRX3ZNDGUugHXsbqjXTn-tkk10rcHbgOvI_wMacI8Kb3vhxHtPYpEGjJb6Mb5XlG6Tfm6jfzpDfx7Vf50A-nXzEA3jWlEofU5lntoS8Gf_G5mgwsTmd-ponDwuZ6p0wE78j5GRhzljbhLSGHcZpxRGJGtErc-Mrg-zhrQNUrOtrhtKOqr47hkcYWTb62tKe7IVhMwMrfClm_p_l2AxLQjNcwRDT-izOJBI8Df_gALzOARl0mnZfOkCfsYfGzNRMB4lGMThewvxh1Ua_YuU5-esrB7imlLC900zjVzBCQeAvqnwig-a2pE_p4vW1A38Lc8DPRlc8nYRfgmqtdioeFfj78ydHhkpHxioecWeVtpcTqLnfp9DF5-0m00?></g></svg>