<?plantuml 1.2026.1?><svg xmlns="http://www.w3.org/2000/svg" xmlns:xlink="http://www.w3.org/1999/xlink" contentStyleType="text/css" data-diagram-type="SEQUENCE" height="1020px" preserveAspectRatio="none" style="width:1225px;height:1020px;background:#FFFFFF;" version="1.1" viewBox="0 0 1225 1020" width="1225px" zoomAndPan="magnify"><title>Home Feature &#8212; Async Data Flow</title><defs/><g><text fill="#000000" font-family="'SF Pro Text'" font-size="14" font-weight="bold" lengthAdjust="spacing" textLength="266.0342" x="480.5293" y="27.9951">Home Feature &#8212; Async Data Flow</text><g><title>HomeViewModel</title><rect fill="#FFFFFF" height="706.7266" style="stroke:#181818;stroke-width:1;" width="10" x="579.9517" y="207.9922"/></g><g><title>NetworkService</title><rect fill="#FFFFFF" height="168.7969" style="stroke:#181818;stroke-width:1;" width="10" x="858.4697" y="287.3906"/></g><g><title>dummyjson.com</title><rect fill="#FFFFFF" height="53.2656" style="stroke:#181818;stroke-width:1;" width="10" x="1137.9463" y="316.5234"/></g><rect fill="none" height="549.0625" style="stroke:#000000;stroke-width:1.5;" width="1208.0928" x="10" y="331.5234"/><g class="participant-lifeline" data-entity-uid="part1" data-qualified-name="User" id="part1-lifeline"><g><title>User</title><rect fill="#000000" fill-opacity="0.00000" height="821.125" width="8" x="34.9551" y="118.5938"/><line style="stroke:#333366;stroke-width:0.5;stroke-dasharray:5,5;" x1="38" x2="38" y1="118.5938" y2="939.7188"/></g></g><g class="participant-lifeline" data-entity-uid="part2" data-qualified-name="RV" id="part2-lifeline"><g><title>RootView</title><rect fill="#000000" fill-opacity="0.00000" height="821.125" width="8" x="135.5586" y="118.5938"/><line style="stroke:#333366;stroke-width:0.5;stroke-dasharray:5,5;" x1="138.6196" x2="138.6196" y1="118.5938" y2="939.7188"/></g></g><g class="participant-lifeline" data-entity-uid="part3" data-qualified-name="HV" id="part3-lifeline"><g><title>HomeView</title><rect fill="#000000" fill-opacity="0.00000" height="821.125" width="8" x="316.9297" y="118.5938"/><line style="stroke:#333366;stroke-width:0.5;stroke-dasharray:5,5;" x1="320.4927" x2="320.4927" y1="118.5938" y2="939.7188"/></g></g><g class="participant-lifeline" data-entity-uid="part4" data-qualified-name="HVM" id="part4-lifeline"><g><title>HomeViewModel</title><rect fill="#000000" fill-opacity="0.00000" height="821.125" width="8" x="580.9517" y="118.5938"/><line style="stroke:#333366;stroke-width:0.5;stroke-dasharray:5,5;" x1="584.4976" x2="584.4976" y1="118.5938" y2="939.7188"/></g></g><g class="participant-lifeline" data-entity-uid="part5" data-qualified-name="NS" id="part5-lifeline"><g><title>NetworkService</title><rect fill="#000000" fill-opacity="0.00000" height="821.125" width="8" x="859.4697" y="118.5938"/><line style="stroke:#333366;stroke-width:0.5;stroke-dasharray:5,5;" x1="863.3721" x2="863.3721" y1="118.5938" y2="939.7188"/></g></g><g class="participant-lifeline" data-entity-uid="part6" data-qualified-name="API" id="part6-lifeline"><g><title>dummyjson.com</title><rect fill="#000000" fill-opacity="0.00000" height="821.125" width="8" x="1138.9463" y="118.5938"/><line style="stroke:#333366;stroke-width:0.5;stroke-dasharray:5,5;" x1="1142.7998" x2="1142.7998" y1="118.5938" y2="939.7188"/></g></g><g class="participant participant-head" data-entity-uid="part1" data-qualified-name="User" id="part1-head"><text fill="#000000" font-family="'SF Pro Text'" font-size="14" lengthAdjust="spacing" textLength="31.9102" x="20" y="115.292">User</text><ellipse cx="38.9551" cy="50.7969" fill="#E8F5E9" rx="8" ry="8" style="stroke:#2E7D32;stroke-width:0.5;"/><path d="M38.9551,58.7969 L38.9551,85.7969 M25.9551,66.7969 L51.9551,66.7969 M38.9551,85.7969 L25.9551,100.7969 M38.9551,85.7969 L51.9551,100.7969" fill="none" style="stroke:#2E7D32;stroke-width:0.5;"/></g><g class="participant participant-tail" data-entity-uid="part1" data-qualified-name="User" id="part1-tail"><text fill="#000000" font-family="'SF Pro Text'" font-size="14" lengthAdjust="spacing" textLength="31.9102" x="20" y="951.7139">User</text><ellipse cx="38.9551" cy="963.5156" fill="#E8F5E9" rx="8" ry="8" style="stroke:#2E7D32;stroke-width:0.5;"/><path d="M38.9551,971.5156 L38.9551,998.5156 M25.9551,979.5156 L51.9551,979.5156 M38.9551,998.5156 L25.9551,1013.5156 M38.9551,998.5156 L51.9551,1013.5156" fill="none" style="stroke:#2E7D32;stroke-width:0.5;"/></g><g class="participant participant-head" data-entity-uid="part2" data-qualified-name="RV" id="part2-head"><rect fill="#F6F6FF" height="30.2969" rx="2.5" ry="2.5" style="stroke:#333366;stroke-width:0.5;" width="79.8779" x="99.6196" y="87.2969"/><text fill="#000000" font-family="'SF Pro Text'" font-size="14" lengthAdjust="spacing" textLength="65.8779" x="106.6196" y="107.292">RootView</text></g><g class="participant participant-tail" data-entity-uid="part2" data-qualified-name="RV" id="part2-tail"><rect fill="#F6F6FF" height="30.2969" rx="2.5" ry="2.5" style="stroke:#333366;stroke-width:0.5;" width="79.8779" x="99.6196" y="938.7188"/><text fill="#000000" font-family="'SF Pro Text'" font-size="14" lengthAdjust="spacing" textLength="65.8779" x="106.6196" y="958.7139">RootView</text></g><g class="participant participant-head" data-entity-uid="part3" data-qualified-name="HV" id="part3-head"><rect fill="#F6F6FF" height="30.2969" rx="2.5" ry="2.5" style="stroke:#333366;stroke-width:0.5;" width="88.874" x="276.4927" y="87.2969"/><text fill="#000000" font-family="'SF Pro Text'" font-size="14" lengthAdjust="spacing" textLength="74.874" x="283.4927" y="107.292">HomeView</text></g><g class="participant participant-tail" data-entity-uid="part3" data-qualified-name="HV" id="part3-tail"><rect fill="#F6F6FF" height="30.2969" rx="2.5" ry="2.5" style="stroke:#333366;stroke-width:0.5;" width="88.874" x="276.4927" y="938.7188"/><text fill="#000000" font-family="'SF Pro Text'" font-size="14" lengthAdjust="spacing" textLength="74.874" x="283.4927" y="958.7139">HomeView</text></g><g class="participant participant-head" data-entity-uid="part4" data-qualified-name="HVM" id="part4-head"><rect fill="#F6F6FF" height="30.2969" rx="2.5" ry="2.5" style="stroke:#333366;stroke-width:0.5;" width="130.9082" x="519.4976" y="87.2969"/><text fill="#000000" font-family="'SF Pro Text'" font-size="14" lengthAdjust="spacing" textLength="116.9082" x="526.4976" y="107.292">HomeViewModel</text></g><g class="participant participant-tail" data-entity-uid="part4" data-qualified-name="HVM" id="part4-tail"><rect fill="#F6F6FF" height="30.2969" rx="2.5" ry="2.5" style="stroke:#333366;stroke-width:0.5;" width="130.9082" x="519.4976" y="938.7188"/><text fill="#000000" font-family="'SF Pro Text'" font-size="14" lengthAdjust="spacing" textLength="116.9082" x="526.4976" y="958.7139">HomeViewModel</text></g><g class="participant participant-head" data-entity-uid="part5" data-qualified-name="NS" id="part5-head"><rect fill="#F6F6FF" height="30.2969" rx="2.5" ry="2.5" style="stroke:#333366;stroke-width:0.5;" width="124.1953" x="801.3721" y="87.2969"/><text fill="#000000" font-family="'SF Pro Text'" font-size="14" lengthAdjust="spacing" textLength="110.1953" x="808.3721" y="107.292">NetworkService</text></g><g class="participant participant-tail" data-entity-uid="part5" data-qualified-name="NS" id="part5-tail"><rect fill="#F6F6FF" height="30.2969" rx="2.5" ry="2.5" style="stroke:#333366;stroke-width:0.5;" width="124.1953" x="801.3721" y="938.7188"/><text fill="#000000" font-family="'SF Pro Text'" font-size="14" lengthAdjust="spacing" textLength="110.1953" x="808.3721" y="958.7139">NetworkService</text></g><g class="participant participant-head" data-entity-uid="part6" data-qualified-name="API" id="part6-head"><rect fill="#F6F6FF" height="30.2969" rx="2.5" ry="2.5" style="stroke:#333366;stroke-width:0.5;" width="130.293" x="1077.7998" y="87.2969"/><text fill="#000000" font-family="'SF Pro Text'" font-size="14" lengthAdjust="spacing" textLength="116.293" x="1084.7998" y="107.292">dummyjson.com</text></g><g class="participant participant-tail" data-entity-uid="part6" data-qualified-name="API" id="part6-tail"><rect fill="#F6F6FF" height="30.2969" rx="2.5" ry="2.5" style="stroke:#333366;stroke-width:0.5;" width="130.293" x="1077.7998" y="938.7188"/><text fill="#000000" font-family="'SF Pro Text'" font-size="14" lengthAdjust="spacing" textLength="116.293" x="1084.7998" y="958.7139">dummyjson.com</text></g><g><title>HomeViewModel</title><rect fill="#FFFFFF" height="706.7266" style="stroke:#181818;stroke-width:1;" width="10" x="579.9517" y="207.9922"/></g><g><title>NetworkService</title><rect fill="#FFFFFF" height="168.7969" style="stroke:#181818;stroke-width:1;" width="10" x="858.4697" y="287.3906"/></g><g><title>dummyjson.com</title><rect fill="#FFFFFF" height="53.2656" style="stroke:#181818;stroke-width:1;" width="10" x="1137.9463" y="316.5234"/></g><g class="message" data-entity-1="part1" data-entity-2="part2" id="msg1"><polygon fill="#333366" points="127.5586,145.7266,137.5586,149.7266,127.5586,153.7266,131.5586,149.7266" style="stroke:#333366;stroke-width:1;"/><line style="stroke:#333366;stroke-width:1;" x1="38.9551" x2="133.5586" y1="149.7266" y2="149.7266"/><text fill="#000000" font-family="'SF Pro Text'" font-size="13" lengthAdjust="spacing" textLength="76.6035" x="45.9551" y="144.6606">App Launch</text></g><g class="message" data-entity-1="part2" data-entity-2="part3" id="msg2"><polygon fill="#333366" points="308.9297,174.8594,318.9297,178.8594,308.9297,182.8594,312.9297,178.8594" style="stroke:#333366;stroke-width:1;"/><line style="stroke:#333366;stroke-width:1;" x1="139.5586" x2="314.9297" y1="178.8594" y2="178.8594"/><text fill="#000000" font-family="'SF Pro Text'" font-size="13" lengthAdjust="spacing" textLength="157.3711" x="146.5586" y="173.7935">renders (TabView tab 1)</text></g><g class="message" data-entity-1="part3" data-entity-2="part4" id="msg3"><polygon fill="#333366" points="567.9517,203.9922,577.9517,207.9922,567.9517,211.9922,571.9517,207.9922" style="stroke:#333366;stroke-width:1;"/><line style="stroke:#333366;stroke-width:1;" x1="320.9297" x2="573.9517" y1="207.9922" y2="207.9922"/><text fill="#000000" font-family="'SF Pro Text'" font-size="13" lengthAdjust="spacing" textLength="212.4688" x="327.9297" y="202.9263">.task { await vm.getProducts() }</text></g><g class="message" data-entity-1="part4" data-entity-2="part4" id="msg4"><line style="stroke:#333366;stroke-width:1;" x1="589.9517" x2="631.9517" y1="241.1914" y2="241.1914"/><line style="stroke:#333366;stroke-width:1;" x1="631.9517" x2="631.9517" y1="241.1914" y2="254.1914"/><line style="stroke:#333366;stroke-width:1;" x1="590.9517" x2="631.9517" y1="254.1914" y2="254.1914"/><polygon fill="#333366" points="600.9517,250.1914,590.9517,254.1914,600.9517,258.1914,596.9517,254.1914" style="stroke:#333366;stroke-width:1;"/><text fill="#000000" font-family="'SF Pro Text'" font-size="13" lengthAdjust="spacing" textLength="107.7388" x="596.9517" y="236.1255">isLoading = true</text></g><path d="M725.7388,220.9922 L725.7388,260.9922 L921.7388,260.9922 L921.7388,230.9922 L911.7388,220.9922 L725.7388,220.9922" fill="#FFFDE7" style="stroke:#F9A825;stroke-width:0.5;"/><path d="M911.7388,220.9922 L911.7388,230.9922 L921.7388,230.9922 L911.7388,220.9922" fill="#FFFDE7" style="stroke:#F9A825;stroke-width:0.5;"/><text fill="#000000" font-family="'SF Pro Text'" font-size="13" lengthAdjust="spacing" textLength="175.0938" x="731.7388" y="238.0591">defer { isLoading = false }</text><text fill="#000000" font-family="'SF Pro Text'" font-size="13" lengthAdjust="spacing" textLength="100.3818" x="731.7388" y="253.1919">registered here</text><g class="message" data-entity-1="part4" data-entity-2="part5" id="msg6"><polygon fill="#333366" points="846.4697,283.3906,856.4697,287.3906,846.4697,291.3906,850.4697,287.3906" style="stroke:#333366;stroke-width:1;"/><line style="stroke:#333366;stroke-width:1;" x1="589.9517" x2="852.4697" y1="287.3906" y2="287.3906"/><text fill="#000000" font-family="'SF Pro Text'" font-size="13" lengthAdjust="spacing" textLength="156.8062" x="596.9517" y="282.3247">getDataFromAPI(urlStr:)</text></g><g class="message" data-entity-1="part5" data-entity-2="part6" id="msg7"><polygon fill="#333366" points="1125.9463,312.5234,1135.9463,316.5234,1125.9463,320.5234,1129.9463,316.5234" style="stroke:#333366;stroke-width:1;"/><line style="stroke:#333366;stroke-width:1;" x1="868.4697" x2="1131.9463" y1="316.5234" y2="316.5234"/><text fill="#000000" font-family="'SF Pro Text'" font-size="13" lengthAdjust="spacing" textLength="175.1953" x="875.4697" y="311.4575">URLSession.data(from: url)</text></g><path d="M10,331.5234 L74.4429,331.5234 L74.4429,338.6563 L64.4429,348.6563 L10,348.6563 L10,331.5234" fill="#EEEEEE" style="stroke:#000000;stroke-width:1.5;"/><rect fill="none" height="549.0625" style="stroke:#000000;stroke-width:1.5;" width="1208.0928" x="10" y="331.5234"/><text fill="#000000" font-family="'SF Pro Text'" font-size="13" font-weight="bold" lengthAdjust="spacing" textLength="19.4429" x="25" y="344.5903">alt</text><text fill="#000000" font-family="'SF Pro Text'" font-size="11" font-weight="bold" lengthAdjust="spacing" textLength="163.2813" x="89.4429" y="343.7339">[HTTP 200-299 &#8212; success]</text><g class="message" data-entity-1="part6" data-entity-2="part5" id="msg8"><polygon fill="#333366" points="879.4697,365.7891,869.4697,369.7891,879.4697,373.7891,875.4697,369.7891" style="stroke:#333366;stroke-width:1;"/><line style="stroke:#333366;stroke-width:1;stroke-dasharray:2,2;" x1="873.4697" x2="1141.9463" y1="369.7891" y2="369.7891"/><text fill="#000000" font-family="'SF Pro Text'" font-size="13" lengthAdjust="spacing" textLength="128.9209" x="885.4697" y="364.7231">JSON response data</text></g><g class="message" data-entity-1="part5" data-entity-2="part5" id="msg9"><line style="stroke:#333366;stroke-width:1;" x1="868.4697" x2="910.4697" y1="414.0547" y2="414.0547"/><line style="stroke:#333366;stroke-width:1;" x1="910.4697" x2="910.4697" y1="414.0547" y2="427.0547"/><line style="stroke:#333366;stroke-width:1;" x1="869.4697" x2="910.4697" y1="427.0547" y2="427.0547"/><polygon fill="#333366" points="879.4697,423.0547,869.4697,427.0547,879.4697,431.0547,875.4697,427.0547" style="stroke:#333366;stroke-width:1;"/><text fill="#000000" font-family="'SF Pro Text'" font-size="13" lengthAdjust="spacing" textLength="86.7471" x="875.4697" y="393.856">JSONDecoder</text><text fill="#000000" font-family="'SF Pro Text'" font-size="13" lengthAdjust="spacing" textLength="245.4766" x="875.4697" y="408.9888">.decode(ProductRoot.self, from: data)</text></g><g class="message" data-entity-1="part5" data-entity-2="part4" id="msg10"><polygon fill="#333366" points="600.9517,452.1875,590.9517,456.1875,600.9517,460.1875,596.9517,456.1875" style="stroke:#333366;stroke-width:1;"/><line style="stroke:#333366;stroke-width:1;stroke-dasharray:2,2;" x1="594.9517" x2="862.4697" y1="456.1875" y2="456.1875"/><text fill="#000000" font-family="'SF Pro Text'" font-size="13" lengthAdjust="spacing" textLength="111.1855" x="606.9517" y="451.1216">returns [Product]</text></g><g class="message" data-entity-1="part4" data-entity-2="part4" id="msg11"><line style="stroke:#333366;stroke-width:1;" x1="589.9517" x2="631.9517" y1="485.3203" y2="485.3203"/><line style="stroke:#333366;stroke-width:1;" x1="631.9517" x2="631.9517" y1="485.3203" y2="498.3203"/><line style="stroke:#333366;stroke-width:1;" x1="590.9517" x2="631.9517" y1="498.3203" y2="498.3203"/><polygon fill="#333366" points="600.9517,494.3203,590.9517,498.3203,600.9517,502.3203,596.9517,498.3203" style="stroke:#333366;stroke-width:1;"/><text fill="#000000" font-family="'SF Pro Text'" font-size="13" lengthAdjust="spacing" textLength="113.2803" x="596.9517" y="480.2544">products = result</text></g><g class="message" data-entity-1="part4" data-entity-2="part4" id="msg12"><line style="stroke:#333366;stroke-width:1;" x1="589.9517" x2="631.9517" y1="527.4531" y2="527.4531"/><line style="stroke:#333366;stroke-width:1;" x1="631.9517" x2="631.9517" y1="527.4531" y2="540.4531"/><line style="stroke:#333366;stroke-width:1;" x1="590.9517" x2="631.9517" y1="540.4531" y2="540.4531"/><polygon fill="#333366" points="600.9517,536.4531,590.9517,540.4531,600.9517,544.4531,596.9517,540.4531" style="stroke:#333366;stroke-width:1;"/><text fill="#000000" font-family="'SF Pro Text'" font-size="13" lengthAdjust="spacing" textLength="127.7466" x="596.9517" y="522.3872">isShowError = false</text></g><g class="message" data-entity-1="part4" data-entity-2="part3" id="msg13"><polygon fill="#333366" points="331.9297,565.5859,321.9297,569.5859,331.9297,573.5859,327.9297,569.5859" style="stroke:#333366;stroke-width:1;"/><line style="stroke:#333366;stroke-width:1;stroke-dasharray:2,2;" x1="325.9297" x2="578.9517" y1="569.5859" y2="569.5859"/><text fill="#000000" font-family="'SF Pro Text'" font-size="13" lengthAdjust="spacing" textLength="207.27" x="337.9297" y="564.52">@Observable triggers re-render</text></g><g class="message" data-entity-1="part3" data-entity-2="part1" id="msg14"><polygon fill="#333366" points="49.9551,594.7188,39.9551,598.7188,49.9551,602.7188,45.9551,598.7188" style="stroke:#333366;stroke-width:1;"/><line style="stroke:#333366;stroke-width:1;stroke-dasharray:2,2;" x1="43.9551" x2="319.9297" y1="598.7188" y2="598.7188"/><text fill="#000000" font-family="'SF Pro Text'" font-size="13" lengthAdjust="spacing" textLength="167.1211" x="55.9551" y="593.6528">List of products displayed</text></g><line style="stroke:#000000;stroke-width:1;stroke-dasharray:2,2;" x1="10" x2="1218.0928" y1="607.7188" y2="607.7188"/><text fill="#000000" font-family="'SF Pro Text'" font-size="11" font-weight="bold" lengthAdjust="spacing" textLength="184.4326" x="15" y="617.9292">[network failure / HTTP error]</text><g class="message" data-entity-1="part6" data-entity-2="part5" id="msg15"><polygon fill="#333366" points="874.4697,638.6563,864.4697,642.6563,874.4697,646.6563,870.4697,642.6563" style="stroke:#333366;stroke-width:1;"/><line style="stroke:#333366;stroke-width:1;stroke-dasharray:2,2;" x1="868.4697" x2="1141.9463" y1="642.6563" y2="642.6563"/><text fill="#000000" font-family="'SF Pro Text'" font-size="13" lengthAdjust="spacing" textLength="141.7051" x="880.4697" y="637.5903">Error / non-2xx status</text></g><g class="message" data-entity-1="part5" data-entity-2="part4" id="msg16"><polygon fill="#333366" points="600.9517,667.7891,590.9517,671.7891,600.9517,675.7891,596.9517,671.7891" style="stroke:#333366;stroke-width:1;"/><line style="stroke:#333366;stroke-width:1;stroke-dasharray:2,2;" x1="594.9517" x2="862.4697" y1="671.7891" y2="671.7891"/><text fill="#000000" font-family="'SF Pro Text'" font-size="13" lengthAdjust="spacing" textLength="106.1646" x="606.9517" y="666.7231">throws URLError</text></g><g class="message" data-entity-1="part4" data-entity-2="part4" id="msg17"><line style="stroke:#333366;stroke-width:1;" x1="589.9517" x2="631.9517" y1="700.9219" y2="700.9219"/><line style="stroke:#333366;stroke-width:1;" x1="631.9517" x2="631.9517" y1="700.9219" y2="713.9219"/><line style="stroke:#333366;stroke-width:1;" x1="590.9517" x2="631.9517" y1="713.9219" y2="713.9219"/><polygon fill="#333366" points="600.9517,709.9219,590.9517,713.9219,600.9517,717.9219,596.9517,713.9219" style="stroke:#333366;stroke-width:1;"/><text fill="#000000" font-family="'SF Pro Text'" font-size="13" lengthAdjust="spacing" textLength="244.5181" x="596.9517" y="695.856">errorMsg = error.localizedDescription</text></g><g class="message" data-entity-1="part4" data-entity-2="part4" id="msg18"><line style="stroke:#333366;stroke-width:1;" x1="589.9517" x2="631.9517" y1="743.0547" y2="743.0547"/><line style="stroke:#333366;stroke-width:1;" x1="631.9517" x2="631.9517" y1="743.0547" y2="756.0547"/><line style="stroke:#333366;stroke-width:1;" x1="590.9517" x2="631.9517" y1="756.0547" y2="756.0547"/><polygon fill="#333366" points="600.9517,752.0547,590.9517,756.0547,600.9517,760.0547,596.9517,756.0547" style="stroke:#333366;stroke-width:1;"/><text fill="#000000" font-family="'SF Pro Text'" font-size="13" lengthAdjust="spacing" textLength="123.5" x="596.9517" y="737.9888">isShowError = true</text></g><g class="message" data-entity-1="part4" data-entity-2="part3" id="msg19"><polygon fill="#333366" points="331.9297,781.1875,321.9297,785.1875,331.9297,789.1875,327.9297,785.1875" style="stroke:#333366;stroke-width:1;"/><line style="stroke:#333366;stroke-width:1;stroke-dasharray:2,2;" x1="325.9297" x2="578.9517" y1="785.1875" y2="785.1875"/><text fill="#000000" font-family="'SF Pro Text'" font-size="13" lengthAdjust="spacing" textLength="235.022" x="337.9297" y="780.1216">alert(isPresented: $vm.isShowError)</text></g><g class="message" data-entity-1="part3" data-entity-2="part1" id="msg20"><polygon fill="#333366" points="49.9551,810.3203,39.9551,814.3203,49.9551,818.3203,45.9551,814.3203" style="stroke:#333366;stroke-width:1;"/><line style="stroke:#333366;stroke-width:1;stroke-dasharray:2,2;" x1="43.9551" x2="319.9297" y1="814.3203" y2="814.3203"/><text fill="#000000" font-family="'SF Pro Text'" font-size="13" lengthAdjust="spacing" textLength="112.3218" x="55.9551" y="809.2544">Error alert shown</text></g><g class="message" data-entity-1="part1" data-entity-2="part3" id="msg21"><polygon fill="#333366" points="308.9297,839.4531,318.9297,843.4531,308.9297,847.4531,312.9297,843.4531" style="stroke:#333366;stroke-width:1;"/><line style="stroke:#333366;stroke-width:1;" x1="38.9551" x2="314.9297" y1="843.4531" y2="843.4531"/><text fill="#000000" font-family="'SF Pro Text'" font-size="13" lengthAdjust="spacing" textLength="70.2305" x="45.9551" y="838.3872">Taps Retry</text></g><g class="message" data-entity-1="part3" data-entity-2="part4" id="msg22"><polygon fill="#333366" points="567.9517,868.5859,577.9517,872.5859,567.9517,876.5859,571.9517,872.5859" style="stroke:#333366;stroke-width:1;"/><line style="stroke:#333366;stroke-width:1;" x1="320.9297" x2="573.9517" y1="872.5859" y2="872.5859"/><text fill="#000000" font-family="'SF Pro Text'" font-size="13" lengthAdjust="spacing" textLength="211.1802" x="327.9297" y="867.52">Task { await vm.getProducts() }</text></g><g class="message" data-entity-1="part4" data-entity-2="part4" id="msg23"><line style="stroke:#333366;stroke-width:1;" x1="589.9517" x2="631.9517" y1="913.7188" y2="913.7188"/><line style="stroke:#333366;stroke-width:1;" x1="631.9517" x2="631.9517" y1="913.7188" y2="926.7188"/><line style="stroke:#333366;stroke-width:1;" x1="584.9517" x2="631.9517" y1="926.7188" y2="926.7188"/><polygon fill="#333366" points="594.9517,922.7188,584.9517,926.7188,594.9517,930.7188,590.9517,926.7188" style="stroke:#333366;stroke-width:1;"/><text fill="#000000" font-family="'SF Pro Text'" font-size="13" lengthAdjust="spacing" textLength="111.9854" x="596.9517" y="908.6528">isLoading = false</text></g><path d="M729.9854,896.0859 L729.9854,921.0859 L888.9854,921.0859 L888.9854,906.0859 L878.9854,896.0859 L729.9854,896.0859" fill="#FFFDE7" style="stroke:#F9A825;stroke-width:0.5;"/><path d="M878.9854,896.0859 L878.9854,906.0859 L888.9854,906.0859 L878.9854,896.0859" fill="#FFFDE7" style="stroke:#F9A825;stroke-width:0.5;"/><text fill="#000000" font-family="'SF Pro Text'" font-size="13" lengthAdjust="spacing" textLength="138.9438" x="735.9854" y="913.1528">defer block fires here</text><?plantuml-src ZLJRRjf047ttLune7q0g92NA1QHM9GMBLa1GJFBIz66n1zXYTjtTDOH6aVeH_S9-IMVNXc1oAmXac7Dcpvwv66vYXAvS8FZ8JAeG_lx-0osz5Y6qcM7WntBbwJaN2LDi0H5EM1eRNmepOCGg1JuCbOGHtfhI3axZpnH5Y2sbvEgpZAM2DqVqEZbv0jJZ4_e8F9SgGlKQUiYKuI5Fc33dB9nFbKn5b9Fy4thxhv3-wvHMQAHwbBzpvXzt6i_2TpFNEwVje_eEL4Y3rhSyVkXUU_775_BzTkTq7xLxZjzedTMFFOzP1N2bKNd9msMXT2cbkUQuAW7JS7bT3DhARuFTPu9z6M6S8_f5o03DIgfvW6h9GtIOGL24HEbYiVwXfQY5Sk4GhU4NpxD2eVgH544JMaa2FPQASERHR_gtQ_zLAEYQ6ieZDhOwmB0nlAzutHpI9qpDC3s7Es0hnWqi5xKf6kh7A0sDBbVWtjh2byoWq-vPqfRBTK-oY8ifV02ZKlIijw3uT6OeIfrE2kyAg0cBDSBzZL0uvTgWmWXczBrDF0Y8IHBiwFXABkYgvLJ5WL7DoeCKieY01ASmuQykUm5gpScYY7Zb2H6RGBGTYlECnGQwez4GweU7rNgZuMPLfs58R0zSjkf6nDVWOa0EwaGAacpp4YB2GaA0JCQMqCQGQgrkI8XxAkTMsXwgQOmdxo0JP_DLSlxMJuMqG8I6RpdhU_54kZL0eG19NYXobfJIMja7S1tCvAf3EqHjtDz0DatowM9CdRHaOzfZXcetjHsZi9erZqCxiEkt9lIeR20d3qT7N2SnMsFaeQsjo1gQpkAntOO7cU5e9UnRdEawe94KrVhjBMX36rG_P_FsKcP6Ar7RgdVoh2-Qv8xkQzj-xh4Mov35_1T6RTIXuecXnddPEDVSUxwn69KfSpqavr4OZ9hmbiPdXrXvP5wMpp514ymUkvbZbtJ44jenQDGwvsxqZ5wPKYhM2yEP5Vw9wHoJ5rGhJdV8vd37IJll_m00?></g></svg>